# xmcd
#
# Track frame offsets:
#	150
#	13556
#	28131
#	40385
#	52088
#	62847
#	78887
#	93487
#	105161
#	122870
#	134449
#	144736
#	154773
#	168908
#	178871
#	191303
#	203784
#	216232
#	227856
#	238541
#	253664
#	266656
#	276889
#	294880
#
# Disc length: 4082 seconds
#
# Revision: 1
# Processed by: cddbd v1.5.2PL0 Copyright (c) Steve Scherf et al.
# Submitted via: audiograbber 1.83.01
#
DISCID=5d0ff018
DTITLE=Marty Robbins - The world of Marty Robbins
DYEAR=1900
DGENRE=
TTITLE0=She was young and she was pretty
TTITLE1=Ride cowboy ride
TTITLE2=I'm beginning to forget
TTITLE3=The blues country style
TTITLE4=In the valley of the Rio Grande
TTITLE5=One window, four walls
TTITLE6=I feel another heartbreak coming on
TTITLE7=The mission in Guadalajara
TTITLE8=The last letter
TTITLE9=Lovesick blues
TTITLE10=I hang my head and cry
TTITLE11=All the world is lonely now
TTITLE12=Have I told you lately that I love you
TTITLE13=The wine flowed freely
TTITLE14=I'm so lonesome I could cry
TTITLE15=Maria Elena
TTITLE16=Streets of Laredo
TTITLE17=18 yellow roses
TTITLE18=I did what I did for Maria
TTITLE19=Padre
TTITLE20=The hanging tree
TTITLE21=Bouquet of Roses
TTITLE22=Hello heartache
TTITLE23=Forever yours
EXTD=
EXTT0=
EXTT1=
EXTT2=
EXTT3=
EXTT4=
EXTT5=
EXTT6=
EXTT7=
EXTT8=
EXTT9=
EXTT10=
EXTT11=
EXTT12=
EXTT13=
EXTT14=
EXTT15=
EXTT16=
EXTT17=
EXTT18=
EXTT19=
EXTT20=
EXTT21=
EXTT22=
EXTT23=
PLAYORDER=
